<mxfile modified="2024-05-07T04:40:51.860Z" host="app.diagrams.net" agent="Mozilla/5.0 (Windows NT 10.0; Win64; x64) AppleWebKit/537.36 (KHTML, like Gecko) Chrome/124.0.0.0 Safari/537.36 Edg/124.0.0.0" etag="790GfypoIoX_U1VhMz9j" version="24.3.1" type="github" pages="2">
  <diagram id="Ht1M8jgEwFfnCIfOTk4-" name="Page-1">
    <mxGraphModel dx="1492" dy="1677" grid="1" gridSize="10" guides="1" tooltips="1" connect="1" arrows="1" fold="1" page="1" pageScale="1" pageWidth="1169" pageHeight="827" math="0" shadow="0">
      <root>
        <mxCell id="0" />
        <mxCell id="1" parent="0" />
        <mxCell id="UEzPUAAOIrF-is8g5C7q-176" value="Shared Services Account" style="points=[[0,0],[0.25,0],[0.5,0],[0.75,0],[1,0],[1,0.25],[1,0.5],[1,0.75],[1,1],[0.75,1],[0.5,1],[0.25,1],[0,1],[0,0.75],[0,0.5],[0,0.25]];outlineConnect=0;gradientColor=none;html=1;whiteSpace=wrap;fontSize=12;fontStyle=0;shape=mxgraph.aws4.group;grIcon=mxgraph.aws4.group_aws_cloud_alt;strokeColor=#232F3E;fillColor=none;verticalAlign=top;align=left;spacingLeft=30;fontColor=#232F3E;dashed=0;labelBackgroundColor=#ffffff;container=1;pointerEvents=0;collapsible=0;recursiveResize=0;" parent="1" vertex="1">
          <mxGeometry x="219" y="-349.5" width="220" height="310" as="geometry" />
        </mxCell>
        <mxCell id="UEzPUAAOIrF-is8g5C7q-185" value="Log Archive Account" style="points=[[0,0],[0.25,0],[0.5,0],[0.75,0],[1,0],[1,0.25],[1,0.5],[1,0.75],[1,1],[0.75,1],[0.5,1],[0.25,1],[0,1],[0,0.75],[0,0.5],[0,0.25]];outlineConnect=0;gradientColor=none;html=1;whiteSpace=wrap;fontSize=12;fontStyle=0;shape=mxgraph.aws4.group;grIcon=mxgraph.aws4.group_aws_cloud_alt;strokeColor=#232F3E;fillColor=none;verticalAlign=top;align=left;spacingLeft=30;fontColor=#232F3E;dashed=0;labelBackgroundColor=#ffffff;container=1;pointerEvents=0;collapsible=0;recursiveResize=0;" parent="1" vertex="1">
          <mxGeometry x="464" y="-349.5" width="230" height="310" as="geometry" />
        </mxCell>
        <mxCell id="UEzPUAAOIrF-is8g5C7q-186" value="Security Account" style="points=[[0,0],[0.25,0],[0.5,0],[0.75,0],[1,0],[1,0.25],[1,0.5],[1,0.75],[1,1],[0.75,1],[0.5,1],[0.25,1],[0,1],[0,0.75],[0,0.5],[0,0.25]];outlineConnect=0;gradientColor=none;html=1;whiteSpace=wrap;fontSize=12;fontStyle=0;shape=mxgraph.aws4.group;grIcon=mxgraph.aws4.group_aws_cloud_alt;strokeColor=#232F3E;fillColor=none;verticalAlign=top;align=left;spacingLeft=30;fontColor=#232F3E;dashed=0;labelBackgroundColor=#ffffff;container=1;pointerEvents=0;collapsible=0;recursiveResize=0;" parent="1" vertex="1">
          <mxGeometry x="720" y="-349.5" width="230" height="310" as="geometry" />
        </mxCell>
        <mxCell id="UEzPUAAOIrF-is8g5C7q-175" value="AWS Cloud" style="points=[[0,0],[0.25,0],[0.5,0],[0.75,0],[1,0],[1,0.25],[1,0.5],[1,0.75],[1,1],[0.75,1],[0.5,1],[0.25,1],[0,1],[0,0.75],[0,0.5],[0,0.25]];outlineConnect=0;gradientColor=none;html=1;whiteSpace=wrap;fontSize=12;fontStyle=0;shape=mxgraph.aws4.group;grIcon=mxgraph.aws4.group_aws_cloud_alt;strokeColor=#232F3E;fillColor=none;verticalAlign=top;align=left;spacingLeft=30;fontColor=#232F3E;dashed=0;labelBackgroundColor=#ffffff;container=1;pointerEvents=0;collapsible=0;recursiveResize=0;" parent="1" vertex="1">
          <mxGeometry x="219" y="-789.5" width="730" height="410" as="geometry" />
        </mxCell>
        <mxCell id="UEzPUAAOIrF-is8g5C7q-195" style="edgeStyle=orthogonalEdgeStyle;rounded=0;orthogonalLoop=1;jettySize=auto;html=1;startArrow=none;startFill=0;endArrow=open;endFill=0;strokeColor=#808080;strokeWidth=2;" parent="1" source="UEzPUAAOIrF-is8g5C7q-177" target="UEzPUAAOIrF-is8g5C7q-178" edge="1">
          <mxGeometry relative="1" as="geometry" />
        </mxCell>
        <mxCell id="UEzPUAAOIrF-is8g5C7q-196" style="edgeStyle=orthogonalEdgeStyle;rounded=0;orthogonalLoop=1;jettySize=auto;html=1;startArrow=none;startFill=0;endArrow=open;endFill=0;strokeColor=#808080;strokeWidth=2;" parent="1" source="UEzPUAAOIrF-is8g5C7q-178" target="UEzPUAAOIrF-is8g5C7q-179" edge="1">
          <mxGeometry relative="1" as="geometry" />
        </mxCell>
        <mxCell id="UEzPUAAOIrF-is8g5C7q-198" style="edgeStyle=orthogonalEdgeStyle;rounded=0;orthogonalLoop=1;jettySize=auto;html=1;startArrow=none;startFill=0;endArrow=open;endFill=0;strokeColor=#808080;strokeWidth=2;" parent="1" source="UEzPUAAOIrF-is8g5C7q-178" target="UEzPUAAOIrF-is8g5C7q-181" edge="1">
          <mxGeometry relative="1" as="geometry">
            <Array as="points">
              <mxPoint x="355" y="-689.5" />
            </Array>
          </mxGeometry>
        </mxCell>
        <mxCell id="UEzPUAAOIrF-is8g5C7q-199" style="edgeStyle=orthogonalEdgeStyle;rounded=0;orthogonalLoop=1;jettySize=auto;html=1;startArrow=none;startFill=0;endArrow=open;endFill=0;strokeColor=#808080;strokeWidth=2;" parent="1" source="UEzPUAAOIrF-is8g5C7q-178" target="UEzPUAAOIrF-is8g5C7q-182" edge="1">
          <mxGeometry relative="1" as="geometry" />
        </mxCell>
        <mxCell id="UEzPUAAOIrF-is8g5C7q-200" style="edgeStyle=orthogonalEdgeStyle;rounded=0;orthogonalLoop=1;jettySize=auto;html=1;startArrow=none;startFill=0;endArrow=open;endFill=0;strokeColor=#808080;strokeWidth=2;" parent="1" source="UEzPUAAOIrF-is8g5C7q-178" target="UEzPUAAOIrF-is8g5C7q-183" edge="1">
          <mxGeometry relative="1" as="geometry">
            <Array as="points">
              <mxPoint x="576" y="-689.5" />
            </Array>
          </mxGeometry>
        </mxCell>
        <mxCell id="UEzPUAAOIrF-is8g5C7q-197" style="edgeStyle=orthogonalEdgeStyle;rounded=0;orthogonalLoop=1;jettySize=auto;html=1;startArrow=none;startFill=0;endArrow=open;endFill=0;strokeColor=#808080;strokeWidth=2;" parent="1" source="UEzPUAAOIrF-is8g5C7q-179" target="UEzPUAAOIrF-is8g5C7q-180" edge="1">
          <mxGeometry relative="1" as="geometry" />
        </mxCell>
        <mxCell id="UEzPUAAOIrF-is8g5C7q-201" style="edgeStyle=orthogonalEdgeStyle;rounded=0;orthogonalLoop=1;jettySize=auto;html=1;startArrow=none;startFill=0;endArrow=open;endFill=0;strokeColor=#808080;strokeWidth=2;" parent="1" source="UEzPUAAOIrF-is8g5C7q-179" target="UEzPUAAOIrF-is8g5C7q-184" edge="1">
          <mxGeometry relative="1" as="geometry" />
        </mxCell>
        <mxCell id="UEzPUAAOIrF-is8g5C7q-202" style="edgeStyle=orthogonalEdgeStyle;rounded=0;orthogonalLoop=1;jettySize=auto;html=1;startArrow=none;startFill=0;endArrow=open;endFill=0;strokeColor=#808080;strokeWidth=2;" parent="1" source="UEzPUAAOIrF-is8g5C7q-184" target="UEzPUAAOIrF-is8g5C7q-176" edge="1">
          <mxGeometry relative="1" as="geometry">
            <Array as="points">
              <mxPoint x="739" y="-369.5" />
              <mxPoint x="329" y="-369.5" />
            </Array>
          </mxGeometry>
        </mxCell>
        <mxCell id="UEzPUAAOIrF-is8g5C7q-203" style="edgeStyle=orthogonalEdgeStyle;rounded=0;orthogonalLoop=1;jettySize=auto;html=1;startArrow=none;startFill=0;endArrow=open;endFill=0;strokeColor=#808080;strokeWidth=2;" parent="1" source="UEzPUAAOIrF-is8g5C7q-184" target="UEzPUAAOIrF-is8g5C7q-185" edge="1">
          <mxGeometry relative="1" as="geometry">
            <Array as="points">
              <mxPoint x="739" y="-369.5" />
              <mxPoint x="674" y="-369.5" />
            </Array>
          </mxGeometry>
        </mxCell>
        <mxCell id="UEzPUAAOIrF-is8g5C7q-204" style="edgeStyle=orthogonalEdgeStyle;rounded=0;orthogonalLoop=1;jettySize=auto;html=1;entryX=0.5;entryY=0;entryDx=0;entryDy=0;startArrow=none;startFill=0;endArrow=open;endFill=0;strokeColor=#808080;strokeWidth=2;" parent="1" source="UEzPUAAOIrF-is8g5C7q-184" target="UEzPUAAOIrF-is8g5C7q-186" edge="1">
          <mxGeometry relative="1" as="geometry">
            <Array as="points">
              <mxPoint x="739" y="-369.5" />
              <mxPoint x="835" y="-369.5" />
            </Array>
          </mxGeometry>
        </mxCell>
        <mxCell id="UEzPUAAOIrF-is8g5C7q-177" value="Amazon S3&lt;br&gt;Bucket&lt;br&gt;" style="outlineConnect=0;fontColor=#232F3E;gradientColor=none;fillColor=#277116;strokeColor=none;dashed=0;verticalLabelPosition=bottom;verticalAlign=top;align=center;html=1;fontSize=12;fontStyle=0;aspect=fixed;pointerEvents=1;shape=mxgraph.aws4.bucket;labelBackgroundColor=#ffffff;" parent="1" vertex="1">
          <mxGeometry x="249" y="-749.5" width="75" height="78" as="geometry" />
        </mxCell>
        <mxCell id="UEzPUAAOIrF-is8g5C7q-178" value="AWS&lt;br&gt;CodePipeline&lt;br&gt;" style="outlineConnect=0;fontColor=#232F3E;gradientColor=#4D72F3;gradientDirection=north;fillColor=#3334B9;strokeColor=#ffffff;dashed=0;verticalLabelPosition=bottom;verticalAlign=top;align=center;html=1;fontSize=12;fontStyle=0;aspect=fixed;shape=mxgraph.aws4.resourceIcon;resIcon=mxgraph.aws4.codepipeline;labelBackgroundColor=#ffffff;" parent="1" vertex="1">
          <mxGeometry x="429" y="-749.5" width="78" height="78" as="geometry" />
        </mxCell>
        <mxCell id="UEzPUAAOIrF-is8g5C7q-179" value="AWS&lt;br&gt;Organizations&lt;br&gt;" style="outlineConnect=0;fontColor=#232F3E;gradientColor=#F54749;gradientDirection=north;fillColor=#C7131F;strokeColor=#ffffff;dashed=0;verticalLabelPosition=bottom;verticalAlign=top;align=center;html=1;fontSize=12;fontStyle=0;aspect=fixed;shape=mxgraph.aws4.resourceIcon;resIcon=mxgraph.aws4.organizations;labelBackgroundColor=#ffffff;" parent="1" vertex="1">
          <mxGeometry x="700" y="-749.5" width="78" height="78" as="geometry" />
        </mxCell>
        <mxCell id="UEzPUAAOIrF-is8g5C7q-180" value="AWS Single&lt;br&gt;Sign-on&lt;br&gt;" style="outlineConnect=0;fontColor=#232F3E;gradientColor=#F34482;gradientDirection=north;fillColor=#BC1356;strokeColor=#ffffff;dashed=0;verticalLabelPosition=bottom;verticalAlign=top;align=center;html=1;fontSize=12;fontStyle=0;aspect=fixed;shape=mxgraph.aws4.resourceIcon;resIcon=mxgraph.aws4.cloudwatch;labelBackgroundColor=#ffffff;" parent="1" vertex="1">
          <mxGeometry x="856" y="-749.5" width="78" height="78" as="geometry" />
        </mxCell>
        <mxCell id="UEzPUAAOIrF-is8g5C7q-181" value="Account&lt;br&gt;Baseline&lt;br&gt;" style="outlineConnect=0;fontColor=#232F3E;gradientColor=#F34482;gradientDirection=north;fillColor=#BC1356;strokeColor=#ffffff;dashed=0;verticalLabelPosition=bottom;verticalAlign=top;align=center;html=1;fontSize=12;fontStyle=0;aspect=fixed;shape=mxgraph.aws4.resourceIcon;resIcon=mxgraph.aws4.cloudformation;labelBackgroundColor=#ffffff;" parent="1" vertex="1">
          <mxGeometry x="316" y="-569.5" width="78" height="78" as="geometry" />
        </mxCell>
        <mxCell id="UEzPUAAOIrF-is8g5C7q-182" value="AWS Service&lt;br&gt;Catalog&lt;br&gt;" style="outlineConnect=0;fontColor=#232F3E;gradientColor=#F34482;gradientDirection=north;fillColor=#BC1356;strokeColor=#ffffff;dashed=0;verticalLabelPosition=bottom;verticalAlign=top;align=center;html=1;fontSize=12;fontStyle=0;aspect=fixed;shape=mxgraph.aws4.resourceIcon;resIcon=mxgraph.aws4.service_catalog;labelBackgroundColor=#ffffff;" parent="1" vertex="1">
          <mxGeometry x="429" y="-569.5" width="78" height="78" as="geometry" />
        </mxCell>
        <mxCell id="UEzPUAAOIrF-is8g5C7q-183" value="AWS&lt;br&gt;Parameter&lt;br&gt;Store&lt;br&gt;" style="outlineConnect=0;fontColor=#232F3E;gradientColor=none;fillColor=#BC1356;strokeColor=none;dashed=0;verticalLabelPosition=bottom;verticalAlign=top;align=center;html=1;fontSize=12;fontStyle=0;aspect=fixed;pointerEvents=1;shape=mxgraph.aws4.parameter_store;labelBackgroundColor=#ffffff;" parent="1" vertex="1">
          <mxGeometry x="539" y="-569.5" width="75" height="78" as="geometry" />
        </mxCell>
        <mxCell id="UEzPUAAOIrF-is8g5C7q-184" value="Core OU" style="outlineConnect=0;fontColor=#232F3E;gradientColor=none;fillColor=#BC1356;strokeColor=none;dashed=0;verticalLabelPosition=bottom;verticalAlign=top;align=center;html=1;fontSize=12;fontStyle=0;aspect=fixed;pointerEvents=1;shape=mxgraph.aws4.resources;labelBackgroundColor=#ffffff;" parent="1" vertex="1">
          <mxGeometry x="705" y="-559.5" width="68" height="78" as="geometry" />
        </mxCell>
        <mxCell id="UEzPUAAOIrF-is8g5C7q-187" value="Account&lt;br&gt;Baseline&lt;br&gt;" style="outlineConnect=0;fontColor=#232F3E;gradientColor=#F34482;gradientDirection=north;fillColor=#BC1356;strokeColor=#ffffff;dashed=0;verticalLabelPosition=bottom;verticalAlign=top;align=center;html=1;fontSize=12;fontStyle=0;aspect=fixed;shape=mxgraph.aws4.resourceIcon;resIcon=mxgraph.aws4.cloudformation;labelBackgroundColor=#ffffff;" parent="1" vertex="1">
          <mxGeometry x="239" y="-297.5" width="78" height="78" as="geometry" />
        </mxCell>
        <mxCell id="UEzPUAAOIrF-is8g5C7q-188" value="Amazon VPC" style="outlineConnect=0;fontColor=#232F3E;gradientColor=#945DF2;gradientDirection=north;fillColor=#5A30B5;strokeColor=#ffffff;dashed=0;verticalLabelPosition=bottom;verticalAlign=top;align=center;html=1;fontSize=12;fontStyle=0;aspect=fixed;shape=mxgraph.aws4.resourceIcon;resIcon=mxgraph.aws4.vpc;labelBackgroundColor=#ffffff;" parent="1" vertex="1">
          <mxGeometry x="340" y="-298.5" width="78" height="78" as="geometry" />
        </mxCell>
        <mxCell id="UEzPUAAOIrF-is8g5C7q-189" value="Account&lt;br&gt;Baseline&lt;br&gt;" style="outlineConnect=0;fontColor=#232F3E;gradientColor=#F34482;gradientDirection=north;fillColor=#BC1356;strokeColor=#ffffff;dashed=0;verticalLabelPosition=bottom;verticalAlign=top;align=center;html=1;fontSize=12;fontStyle=0;aspect=fixed;shape=mxgraph.aws4.resourceIcon;resIcon=mxgraph.aws4.cloudformation;labelBackgroundColor=#ffffff;" parent="1" vertex="1">
          <mxGeometry x="479" y="-298.5" width="78" height="78" as="geometry" />
        </mxCell>
        <mxCell id="UEzPUAAOIrF-is8g5C7q-190" value="Aggregate&lt;br&gt;CloudTrail&lt;br&gt;and Config Logs&lt;br&gt;" style="outlineConnect=0;fontColor=#232F3E;gradientColor=none;fillColor=#5A30B5;strokeColor=none;dashed=0;verticalLabelPosition=bottom;verticalAlign=top;align=center;html=1;fontSize=12;fontStyle=0;aspect=fixed;pointerEvents=1;shape=mxgraph.aws4.flow_logs;labelBackgroundColor=#ffffff;" parent="1" vertex="1">
          <mxGeometry x="581" y="-299.5" width="78" height="78" as="geometry" />
        </mxCell>
        <mxCell id="UEzPUAAOIrF-is8g5C7q-191" value="Account&lt;br&gt;Baseline&lt;br&gt;" style="outlineConnect=0;fontColor=#232F3E;gradientColor=#F34482;gradientDirection=north;fillColor=#BC1356;strokeColor=#ffffff;dashed=0;verticalLabelPosition=bottom;verticalAlign=top;align=center;html=1;fontSize=12;fontStyle=0;aspect=fixed;shape=mxgraph.aws4.resourceIcon;resIcon=mxgraph.aws4.cloudformation;labelBackgroundColor=#ffffff;" parent="1" vertex="1">
          <mxGeometry x="740" y="-299.5" width="78" height="78" as="geometry" />
        </mxCell>
        <mxCell id="UEzPUAAOIrF-is8g5C7q-192" value="Security&lt;br&gt;Cross-Account&lt;br&gt;Roles&lt;br&gt;" style="outlineConnect=0;fontColor=#232F3E;gradientColor=none;fillColor=#C7131F;strokeColor=none;dashed=0;verticalLabelPosition=bottom;verticalAlign=top;align=center;html=1;fontSize=12;fontStyle=0;aspect=fixed;pointerEvents=1;shape=mxgraph.aws4.addon;labelBackgroundColor=#ffffff;" parent="1" vertex="1">
          <mxGeometry x="849" y="-280.5" width="78" height="40" as="geometry" />
        </mxCell>
        <mxCell id="UEzPUAAOIrF-is8g5C7q-193" value="Amazon&lt;br&gt;GuardDuty&lt;br&gt;" style="outlineConnect=0;fontColor=#232F3E;gradientColor=#F54749;gradientDirection=north;fillColor=#C7131F;strokeColor=#ffffff;dashed=0;verticalLabelPosition=bottom;verticalAlign=top;align=center;html=1;fontSize=12;fontStyle=0;aspect=fixed;shape=mxgraph.aws4.resourceIcon;resIcon=mxgraph.aws4.guardduty;labelBackgroundColor=#ffffff;" parent="1" vertex="1">
          <mxGeometry x="740" y="-169.5" width="78" height="78" as="geometry" />
        </mxCell>
        <mxCell id="UEzPUAAOIrF-is8g5C7q-194" value="Amazon SNS" style="outlineConnect=0;fontColor=#232F3E;gradientColor=#F34482;gradientDirection=north;fillColor=#BC1356;strokeColor=#ffffff;dashed=0;verticalLabelPosition=bottom;verticalAlign=top;align=center;html=1;fontSize=12;fontStyle=0;aspect=fixed;shape=mxgraph.aws4.resourceIcon;resIcon=mxgraph.aws4.sns;labelBackgroundColor=#ffffff;" parent="1" vertex="1">
          <mxGeometry x="849" y="-169.5" width="78" height="78" as="geometry" />
        </mxCell>
      </root>
    </mxGraphModel>
  </diagram>
  <diagram id="rHoFBskBhVFXoa4Nj7ps" name="Page-2">
    <mxGraphModel dx="1783" dy="1631" grid="1" gridSize="10" guides="1" tooltips="1" connect="1" arrows="1" fold="1" page="1" pageScale="1" pageWidth="850" pageHeight="1100" math="0" shadow="0">
      <root>
        <mxCell id="0" />
        <mxCell id="1" parent="0" />
        <mxCell id="18chFsnPca5tmtSWmL4l-3" value="" style="rounded=0;whiteSpace=wrap;html=1;" vertex="1" parent="1">
          <mxGeometry x="-450" y="-320" width="70" height="300" as="geometry" />
        </mxCell>
        <mxCell id="18chFsnPca5tmtSWmL4l-55" value="" style="group" vertex="1" connectable="0" parent="1">
          <mxGeometry x="-349" y="35" width="90" height="300" as="geometry" />
        </mxCell>
        <mxCell id="kf7YcmcY7u6PWRtS9r6O-1" value="" style="rounded=1;whiteSpace=wrap;html=1;dashed=1;" vertex="1" parent="18chFsnPca5tmtSWmL4l-55">
          <mxGeometry width="90" height="300" as="geometry" />
        </mxCell>
        <mxCell id="kf7YcmcY7u6PWRtS9r6O-2" value="&lt;font style=&quot;font-size: 10px;&quot;&gt;CIM&lt;/font&gt;" style="rounded=0;whiteSpace=wrap;html=1;" vertex="1" parent="18chFsnPca5tmtSWmL4l-55">
          <mxGeometry x="17.5" y="13.5" width="55" height="23" as="geometry" />
        </mxCell>
        <mxCell id="kf7YcmcY7u6PWRtS9r6O-3" value="&lt;font style=&quot;font-size: 8px;&quot;&gt;TELEMATICS&lt;/font&gt;" style="rounded=0;whiteSpace=wrap;html=1;" vertex="1" parent="18chFsnPca5tmtSWmL4l-55">
          <mxGeometry x="17" y="62" width="55" height="26" as="geometry" />
        </mxCell>
        <mxCell id="kf7YcmcY7u6PWRtS9r6O-4" value="&lt;font style=&quot;font-size: 9px;&quot;&gt;Efulfillment&lt;/font&gt;" style="rounded=0;whiteSpace=wrap;html=1;" vertex="1" parent="18chFsnPca5tmtSWmL4l-55">
          <mxGeometry x="17.5" y="111.5" width="55" height="27" as="geometry" />
        </mxCell>
        <mxCell id="kf7YcmcY7u6PWRtS9r6O-5" value="&lt;font style=&quot;font-size: 9px;&quot;&gt;QW2&lt;/font&gt;" style="rounded=0;whiteSpace=wrap;html=1;" vertex="1" parent="18chFsnPca5tmtSWmL4l-55">
          <mxGeometry x="17" y="165" width="55" height="20" as="geometry" />
        </mxCell>
        <mxCell id="18chFsnPca5tmtSWmL4l-1" value="&lt;font style=&quot;font-size: 9px;&quot;&gt;DCS_NT&lt;/font&gt;" style="rounded=0;whiteSpace=wrap;html=1;" vertex="1" parent="18chFsnPca5tmtSWmL4l-55">
          <mxGeometry x="18" y="217" width="55" height="20" as="geometry" />
        </mxCell>
        <mxCell id="18chFsnPca5tmtSWmL4l-2" value="&lt;font size=&quot;1&quot;&gt;myT Reg&lt;/font&gt;" style="rounded=0;whiteSpace=wrap;html=1;" vertex="1" parent="18chFsnPca5tmtSWmL4l-55">
          <mxGeometry x="19" y="260" width="55" height="20" as="geometry" />
        </mxCell>
        <mxCell id="18chFsnPca5tmtSWmL4l-56" value="" style="group" vertex="1" connectable="0" parent="1">
          <mxGeometry x="-205" y="10" width="112" height="350" as="geometry" />
        </mxCell>
        <mxCell id="18chFsnPca5tmtSWmL4l-11" value="" style="rounded=0;whiteSpace=wrap;html=1;" vertex="1" parent="18chFsnPca5tmtSWmL4l-56">
          <mxGeometry x="6" width="100" height="350" as="geometry" />
        </mxCell>
        <mxCell id="18chFsnPca5tmtSWmL4l-19" value="&lt;div style=&quot;text-align: justify;&quot;&gt;&lt;span style=&quot;background-color: initial;&quot;&gt;&lt;b style=&quot;&quot;&gt;&lt;font style=&quot;font-size: 9px;&quot;&gt;EEF - Inbound Topics&amp;nbsp;&lt;/font&gt;&lt;/b&gt;&lt;/span&gt;&lt;/div&gt;" style="text;html=1;align=right;verticalAlign=middle;whiteSpace=wrap;rounded=0;" vertex="1" parent="18chFsnPca5tmtSWmL4l-56">
          <mxGeometry x="6" width="100" height="30" as="geometry" />
        </mxCell>
        <mxCell id="18chFsnPca5tmtSWmL4l-24" value="" style="group" vertex="1" connectable="0" parent="18chFsnPca5tmtSWmL4l-56">
          <mxGeometry y="130" width="110" height="50" as="geometry" />
        </mxCell>
        <mxCell id="18chFsnPca5tmtSWmL4l-25" value="" style="sketch=0;points=[[0,0,0],[0.25,0,0],[0.5,0,0],[0.75,0,0],[1,0,0],[0,1,0],[0.25,1,0],[0.5,1,0],[0.75,1,0],[1,1,0],[0,0.25,0],[0,0.5,0],[0,0.75,0],[1,0.25,0],[1,0.5,0],[1,0.75,0]];outlineConnect=0;fontColor=#232F3E;fillColor=#8C4FFF;strokeColor=#ffffff;dashed=0;verticalLabelPosition=bottom;verticalAlign=top;align=center;html=1;fontSize=12;fontStyle=0;aspect=fixed;shape=mxgraph.aws4.resourceIcon;resIcon=mxgraph.aws4.data_exchange;" vertex="1" parent="18chFsnPca5tmtSWmL4l-24">
          <mxGeometry x="40" width="30" height="30" as="geometry" />
        </mxCell>
        <mxCell id="18chFsnPca5tmtSWmL4l-26" value="&lt;font size=&quot;1&quot;&gt;EF&lt;/font&gt;" style="text;html=1;align=center;verticalAlign=middle;whiteSpace=wrap;rounded=0;" vertex="1" parent="18chFsnPca5tmtSWmL4l-24">
          <mxGeometry y="30" width="110" height="20" as="geometry" />
        </mxCell>
        <mxCell id="18chFsnPca5tmtSWmL4l-27" value="" style="group" vertex="1" connectable="0" parent="18chFsnPca5tmtSWmL4l-56">
          <mxGeometry y="180" width="110" height="50" as="geometry" />
        </mxCell>
        <mxCell id="18chFsnPca5tmtSWmL4l-28" value="" style="sketch=0;points=[[0,0,0],[0.25,0,0],[0.5,0,0],[0.75,0,0],[1,0,0],[0,1,0],[0.25,1,0],[0.5,1,0],[0.75,1,0],[1,1,0],[0,0.25,0],[0,0.5,0],[0,0.75,0],[1,0.25,0],[1,0.5,0],[1,0.75,0]];outlineConnect=0;fontColor=#232F3E;fillColor=#8C4FFF;strokeColor=#ffffff;dashed=0;verticalLabelPosition=bottom;verticalAlign=top;align=center;html=1;fontSize=12;fontStyle=0;aspect=fixed;shape=mxgraph.aws4.resourceIcon;resIcon=mxgraph.aws4.data_exchange;" vertex="1" parent="18chFsnPca5tmtSWmL4l-27">
          <mxGeometry x="40" width="30" height="30" as="geometry" />
        </mxCell>
        <mxCell id="18chFsnPca5tmtSWmL4l-29" value="&lt;font style=&quot;font-size: 9px;&quot;&gt;QW2&lt;/font&gt;" style="text;html=1;align=center;verticalAlign=middle;whiteSpace=wrap;rounded=0;" vertex="1" parent="18chFsnPca5tmtSWmL4l-27">
          <mxGeometry y="30" width="110" height="20" as="geometry" />
        </mxCell>
        <mxCell id="18chFsnPca5tmtSWmL4l-30" value="" style="group" vertex="1" connectable="0" parent="18chFsnPca5tmtSWmL4l-56">
          <mxGeometry y="235" width="110" height="50" as="geometry" />
        </mxCell>
        <mxCell id="18chFsnPca5tmtSWmL4l-39" value="" style="group" vertex="1" connectable="0" parent="18chFsnPca5tmtSWmL4l-30">
          <mxGeometry width="110" height="50" as="geometry" />
        </mxCell>
        <mxCell id="18chFsnPca5tmtSWmL4l-31" value="" style="sketch=0;points=[[0,0,0],[0.25,0,0],[0.5,0,0],[0.75,0,0],[1,0,0],[0,1,0],[0.25,1,0],[0.5,1,0],[0.75,1,0],[1,1,0],[0,0.25,0],[0,0.5,0],[0,0.75,0],[1,0.25,0],[1,0.5,0],[1,0.75,0]];outlineConnect=0;fontColor=#232F3E;fillColor=#8C4FFF;strokeColor=#ffffff;dashed=0;verticalLabelPosition=bottom;verticalAlign=top;align=center;html=1;fontSize=12;fontStyle=0;aspect=fixed;shape=mxgraph.aws4.resourceIcon;resIcon=mxgraph.aws4.data_exchange;" vertex="1" parent="18chFsnPca5tmtSWmL4l-39">
          <mxGeometry x="40" width="30" height="30" as="geometry" />
        </mxCell>
        <mxCell id="18chFsnPca5tmtSWmL4l-32" value="&lt;font style=&quot;font-size: 9px;&quot;&gt;DCS NT&lt;/font&gt;" style="text;html=1;align=center;verticalAlign=middle;whiteSpace=wrap;rounded=0;" vertex="1" parent="18chFsnPca5tmtSWmL4l-39">
          <mxGeometry y="30" width="110" height="20" as="geometry" />
        </mxCell>
        <mxCell id="18chFsnPca5tmtSWmL4l-33" value="" style="group" vertex="1" connectable="0" parent="18chFsnPca5tmtSWmL4l-56">
          <mxGeometry x="1" y="290" width="110" height="50" as="geometry" />
        </mxCell>
        <mxCell id="18chFsnPca5tmtSWmL4l-34" value="" style="sketch=0;points=[[0,0,0],[0.25,0,0],[0.5,0,0],[0.75,0,0],[1,0,0],[0,1,0],[0.25,1,0],[0.5,1,0],[0.75,1,0],[1,1,0],[0,0.25,0],[0,0.5,0],[0,0.75,0],[1,0.25,0],[1,0.5,0],[1,0.75,0]];outlineConnect=0;fontColor=#232F3E;fillColor=#8C4FFF;strokeColor=#ffffff;dashed=0;verticalLabelPosition=bottom;verticalAlign=top;align=center;html=1;fontSize=12;fontStyle=0;aspect=fixed;shape=mxgraph.aws4.resourceIcon;resIcon=mxgraph.aws4.data_exchange;" vertex="1" parent="18chFsnPca5tmtSWmL4l-33">
          <mxGeometry x="40" width="30" height="30" as="geometry" />
        </mxCell>
        <mxCell id="18chFsnPca5tmtSWmL4l-35" value="&lt;font style=&quot;font-size: 9px;&quot;&gt;myT Reg&lt;/font&gt;" style="text;html=1;align=center;verticalAlign=middle;whiteSpace=wrap;rounded=0;" vertex="1" parent="18chFsnPca5tmtSWmL4l-33">
          <mxGeometry y="30" width="110" height="20" as="geometry" />
        </mxCell>
        <mxCell id="18chFsnPca5tmtSWmL4l-48" value="" style="group" vertex="1" connectable="0" parent="18chFsnPca5tmtSWmL4l-56">
          <mxGeometry x="1" y="80" width="110" height="50" as="geometry" />
        </mxCell>
        <mxCell id="18chFsnPca5tmtSWmL4l-49" value="" style="sketch=0;points=[[0,0,0],[0.25,0,0],[0.5,0,0],[0.75,0,0],[1,0,0],[0,1,0],[0.25,1,0],[0.5,1,0],[0.75,1,0],[1,1,0],[0,0.25,0],[0,0.5,0],[0,0.75,0],[1,0.25,0],[1,0.5,0],[1,0.75,0]];outlineConnect=0;fontColor=#232F3E;fillColor=#8C4FFF;strokeColor=#ffffff;dashed=0;verticalLabelPosition=bottom;verticalAlign=top;align=center;html=1;fontSize=12;fontStyle=0;aspect=fixed;shape=mxgraph.aws4.resourceIcon;resIcon=mxgraph.aws4.data_exchange;" vertex="1" parent="18chFsnPca5tmtSWmL4l-48">
          <mxGeometry x="40" width="30" height="30" as="geometry" />
        </mxCell>
        <mxCell id="18chFsnPca5tmtSWmL4l-50" value="&lt;font style=&quot;font-size: 9px;&quot;&gt;TELEMATICS&lt;/font&gt;" style="text;html=1;align=center;verticalAlign=middle;whiteSpace=wrap;rounded=0;" vertex="1" parent="18chFsnPca5tmtSWmL4l-48">
          <mxGeometry y="30" width="110" height="20" as="geometry" />
        </mxCell>
        <mxCell id="18chFsnPca5tmtSWmL4l-52" value="" style="group" vertex="1" connectable="0" parent="18chFsnPca5tmtSWmL4l-56">
          <mxGeometry x="2" y="30" width="110" height="50" as="geometry" />
        </mxCell>
        <mxCell id="18chFsnPca5tmtSWmL4l-53" value="" style="sketch=0;points=[[0,0,0],[0.25,0,0],[0.5,0,0],[0.75,0,0],[1,0,0],[0,1,0],[0.25,1,0],[0.5,1,0],[0.75,1,0],[1,1,0],[0,0.25,0],[0,0.5,0],[0,0.75,0],[1,0.25,0],[1,0.5,0],[1,0.75,0]];outlineConnect=0;fontColor=#232F3E;fillColor=#8C4FFF;strokeColor=#ffffff;dashed=0;verticalLabelPosition=bottom;verticalAlign=top;align=center;html=1;fontSize=12;fontStyle=0;aspect=fixed;shape=mxgraph.aws4.resourceIcon;resIcon=mxgraph.aws4.data_exchange;" vertex="1" parent="18chFsnPca5tmtSWmL4l-52">
          <mxGeometry x="40" width="30" height="30" as="geometry" />
        </mxCell>
        <mxCell id="18chFsnPca5tmtSWmL4l-54" value="&lt;font size=&quot;1&quot;&gt;CIM&lt;/font&gt;" style="text;html=1;align=center;verticalAlign=middle;whiteSpace=wrap;rounded=0;" vertex="1" parent="18chFsnPca5tmtSWmL4l-52">
          <mxGeometry y="30" width="110" height="20" as="geometry" />
        </mxCell>
        <mxCell id="18chFsnPca5tmtSWmL4l-58" value="&lt;font style=&quot;font-size: 10px;&quot;&gt;&lt;b&gt;API GATEWAY&lt;/b&gt;&lt;/font&gt;" style="text;html=1;align=center;verticalAlign=middle;whiteSpace=wrap;rounded=0;" vertex="1" parent="1">
          <mxGeometry x="-78.5" y="180" width="115" height="30" as="geometry" />
        </mxCell>
        <mxCell id="18chFsnPca5tmtSWmL4l-60" value="" style="rounded=0;whiteSpace=wrap;html=1;" vertex="1" parent="1">
          <mxGeometry x="56" y="11" width="100" height="350" as="geometry" />
        </mxCell>
        <mxCell id="18chFsnPca5tmtSWmL4l-61" value="&lt;div style=&quot;&quot;&gt;&lt;font size=&quot;1&quot;&gt;&lt;b&gt;Inbound Event Listeners&lt;/b&gt;&lt;/font&gt;&lt;/div&gt;" style="text;html=1;align=center;verticalAlign=middle;whiteSpace=wrap;rounded=0;" vertex="1" parent="1">
          <mxGeometry x="56" y="11" width="100" height="30" as="geometry" />
        </mxCell>
        <mxCell id="18chFsnPca5tmtSWmL4l-78" value="" style="group" vertex="1" connectable="0" parent="1">
          <mxGeometry x="57" y="50" width="100" height="40" as="geometry" />
        </mxCell>
        <mxCell id="18chFsnPca5tmtSWmL4l-80" value="&lt;div style=&quot;&quot;&gt;&lt;span style=&quot;font-size: 8px; background-color: initial;&quot;&gt;CIM - L&lt;/span&gt;&lt;/div&gt;" style="text;html=1;align=center;verticalAlign=middle;whiteSpace=wrap;rounded=0;" vertex="1" parent="18chFsnPca5tmtSWmL4l-78">
          <mxGeometry y="18" width="100" height="16" as="geometry" />
        </mxCell>
        <mxCell id="18chFsnPca5tmtSWmL4l-82" value="" style="sketch=0;outlineConnect=0;fontColor=#232F3E;gradientColor=none;fillColor=#7AA116;strokeColor=none;dashed=0;verticalLabelPosition=bottom;verticalAlign=top;align=center;html=1;fontSize=12;fontStyle=0;aspect=fixed;pointerEvents=1;shape=mxgraph.aws4.lambda_function;" vertex="1" parent="18chFsnPca5tmtSWmL4l-78">
          <mxGeometry x="37.72727272727273" width="17.672727272727272" height="17.672727272727272" as="geometry" />
        </mxCell>
        <mxCell id="18chFsnPca5tmtSWmL4l-92" value="" style="group" vertex="1" connectable="0" parent="1">
          <mxGeometry x="213" y="136" width="69" height="60" as="geometry" />
        </mxCell>
        <mxCell id="18chFsnPca5tmtSWmL4l-89" value="" style="whiteSpace=wrap;html=1;aspect=fixed;" vertex="1" parent="18chFsnPca5tmtSWmL4l-92">
          <mxGeometry width="60.00000000000001" height="60.00000000000001" as="geometry" />
        </mxCell>
        <mxCell id="18chFsnPca5tmtSWmL4l-90" value="" style="sketch=0;points=[[0,0,0],[0.25,0,0],[0.5,0,0],[0.75,0,0],[1,0,0],[0,1,0],[0.25,1,0],[0.5,1,0],[0.75,1,0],[1,1,0],[0,0.25,0],[0,0.5,0],[0,0.75,0],[1,0.25,0],[1,0.5,0],[1,0.75,0]];outlineConnect=0;fontColor=#232F3E;fillColor=#C925D1;strokeColor=#ffffff;dashed=0;verticalLabelPosition=bottom;verticalAlign=top;align=center;html=1;fontSize=12;fontStyle=0;aspect=fixed;shape=mxgraph.aws4.resourceIcon;resIcon=mxgraph.aws4.documentdb_with_mongodb_compatibility;" vertex="1" parent="18chFsnPca5tmtSWmL4l-92">
          <mxGeometry x="6.621212121212121" y="5.757575757575759" width="48.48484848484849" height="48.48484848484849" as="geometry" />
        </mxCell>
        <mxCell id="18chFsnPca5tmtSWmL4l-91" value="" style="dashed=0;outlineConnect=0;html=1;align=center;labelPosition=center;verticalLabelPosition=bottom;verticalAlign=top;shape=mxgraph.webicons.mongodb;gradientColor=#DFDEDE" vertex="1" parent="18chFsnPca5tmtSWmL4l-92">
          <mxGeometry x="54.36363636363637" y="45.151515151515156" width="14.636363636363637" height="12.727272727272728" as="geometry" />
        </mxCell>
        <mxCell id="18chFsnPca5tmtSWmL4l-95" value="" style="sketch=0;points=[[0,0,0],[0.25,0,0],[0.5,0,0],[0.75,0,0],[1,0,0],[0,1,0],[0.25,1,0],[0.5,1,0],[0.75,1,0],[1,1,0],[0,0.25,0],[0,0.5,0],[0,0.75,0],[1,0.25,0],[1,0.5,0],[1,0.75,0]];outlineConnect=0;fontColor=#232F3E;fillColor=#E7157B;strokeColor=#ffffff;dashed=0;verticalLabelPosition=bottom;verticalAlign=top;align=center;html=1;fontSize=12;fontStyle=0;aspect=fixed;shape=mxgraph.aws4.resourceIcon;resIcon=mxgraph.aws4.api_gateway;" vertex="1" parent="1">
          <mxGeometry x="-44" y="135.5" width="48" height="48" as="geometry" />
        </mxCell>
        <mxCell id="18chFsnPca5tmtSWmL4l-102" value="" style="group" vertex="1" connectable="0" parent="1">
          <mxGeometry x="57" y="94" width="100" height="40" as="geometry" />
        </mxCell>
        <mxCell id="18chFsnPca5tmtSWmL4l-103" value="&lt;div style=&quot;&quot;&gt;&lt;span style=&quot;font-size: 8px;&quot;&gt;Telematics - L&amp;nbsp;&lt;/span&gt;&lt;/div&gt;" style="text;html=1;align=center;verticalAlign=middle;whiteSpace=wrap;rounded=0;" vertex="1" parent="18chFsnPca5tmtSWmL4l-102">
          <mxGeometry y="18" width="100" height="16" as="geometry" />
        </mxCell>
        <mxCell id="18chFsnPca5tmtSWmL4l-104" value="" style="sketch=0;outlineConnect=0;fontColor=#232F3E;gradientColor=none;fillColor=#7AA116;strokeColor=none;dashed=0;verticalLabelPosition=bottom;verticalAlign=top;align=center;html=1;fontSize=12;fontStyle=0;aspect=fixed;pointerEvents=1;shape=mxgraph.aws4.lambda_function;" vertex="1" parent="18chFsnPca5tmtSWmL4l-102">
          <mxGeometry x="37.72727272727273" width="17.672727272727272" height="17.672727272727272" as="geometry" />
        </mxCell>
        <mxCell id="18chFsnPca5tmtSWmL4l-105" value="" style="group" vertex="1" connectable="0" parent="1">
          <mxGeometry x="56" y="137" width="100" height="40" as="geometry" />
        </mxCell>
        <mxCell id="18chFsnPca5tmtSWmL4l-106" value="&lt;div style=&quot;&quot;&gt;&lt;span style=&quot;font-size: 8px;&quot;&gt;E Fulfillment - L&lt;/span&gt;&lt;/div&gt;" style="text;html=1;align=center;verticalAlign=middle;whiteSpace=wrap;rounded=0;" vertex="1" parent="18chFsnPca5tmtSWmL4l-105">
          <mxGeometry y="18" width="100" height="16" as="geometry" />
        </mxCell>
        <mxCell id="18chFsnPca5tmtSWmL4l-107" value="" style="sketch=0;outlineConnect=0;fontColor=#232F3E;gradientColor=none;fillColor=#7AA116;strokeColor=none;dashed=0;verticalLabelPosition=bottom;verticalAlign=top;align=center;html=1;fontSize=12;fontStyle=0;aspect=fixed;pointerEvents=1;shape=mxgraph.aws4.lambda_function;" vertex="1" parent="18chFsnPca5tmtSWmL4l-105">
          <mxGeometry x="41.167272727272724" width="17.672727272727272" height="17.672727272727272" as="geometry" />
        </mxCell>
        <mxCell id="18chFsnPca5tmtSWmL4l-108" value="" style="group" vertex="1" connectable="0" parent="1">
          <mxGeometry x="56" y="188" width="100" height="40" as="geometry" />
        </mxCell>
        <mxCell id="18chFsnPca5tmtSWmL4l-109" value="&lt;div style=&quot;&quot;&gt;&lt;span style=&quot;font-size: 8px;&quot;&gt;QW2 - L&lt;/span&gt;&lt;/div&gt;" style="text;html=1;align=center;verticalAlign=middle;whiteSpace=wrap;rounded=0;" vertex="1" parent="18chFsnPca5tmtSWmL4l-108">
          <mxGeometry y="18" width="100" height="16" as="geometry" />
        </mxCell>
        <mxCell id="18chFsnPca5tmtSWmL4l-110" value="" style="sketch=0;outlineConnect=0;fontColor=#232F3E;gradientColor=none;fillColor=#7AA116;strokeColor=none;dashed=0;verticalLabelPosition=bottom;verticalAlign=top;align=center;html=1;fontSize=12;fontStyle=0;aspect=fixed;pointerEvents=1;shape=mxgraph.aws4.lambda_function;" vertex="1" parent="18chFsnPca5tmtSWmL4l-108">
          <mxGeometry x="38.72727272727273" width="17.672727272727272" height="17.672727272727272" as="geometry" />
        </mxCell>
        <mxCell id="18chFsnPca5tmtSWmL4l-114" value="" style="group" vertex="1" connectable="0" parent="1">
          <mxGeometry x="56" y="239" width="100" height="40" as="geometry" />
        </mxCell>
        <mxCell id="18chFsnPca5tmtSWmL4l-115" value="&lt;div style=&quot;&quot;&gt;&lt;span style=&quot;font-size: 8px;&quot;&gt;DCS-NT - L&lt;/span&gt;&lt;/div&gt;" style="text;html=1;align=center;verticalAlign=middle;whiteSpace=wrap;rounded=0;" vertex="1" parent="18chFsnPca5tmtSWmL4l-114">
          <mxGeometry y="18" width="100" height="16" as="geometry" />
        </mxCell>
        <mxCell id="18chFsnPca5tmtSWmL4l-116" value="" style="sketch=0;outlineConnect=0;fontColor=#232F3E;gradientColor=none;fillColor=#7AA116;strokeColor=none;dashed=0;verticalLabelPosition=bottom;verticalAlign=top;align=center;html=1;fontSize=12;fontStyle=0;aspect=fixed;pointerEvents=1;shape=mxgraph.aws4.lambda_function;" vertex="1" parent="18chFsnPca5tmtSWmL4l-114">
          <mxGeometry x="39.72727272727273" width="17.672727272727272" height="17.672727272727272" as="geometry" />
        </mxCell>
        <mxCell id="18chFsnPca5tmtSWmL4l-117" value="" style="group" vertex="1" connectable="0" parent="1">
          <mxGeometry x="56" y="292" width="100" height="40" as="geometry" />
        </mxCell>
        <mxCell id="18chFsnPca5tmtSWmL4l-118" value="&lt;div style=&quot;&quot;&gt;&lt;span style=&quot;font-size: 8px;&quot;&gt;Myt Reg - L&lt;/span&gt;&lt;/div&gt;" style="text;html=1;align=center;verticalAlign=middle;whiteSpace=wrap;rounded=0;" vertex="1" parent="18chFsnPca5tmtSWmL4l-117">
          <mxGeometry y="18" width="100" height="16" as="geometry" />
        </mxCell>
        <mxCell id="18chFsnPca5tmtSWmL4l-119" value="" style="sketch=0;outlineConnect=0;fontColor=#232F3E;gradientColor=none;fillColor=#7AA116;strokeColor=none;dashed=0;verticalLabelPosition=bottom;verticalAlign=top;align=center;html=1;fontSize=12;fontStyle=0;aspect=fixed;pointerEvents=1;shape=mxgraph.aws4.lambda_function;" vertex="1" parent="18chFsnPca5tmtSWmL4l-117">
          <mxGeometry x="39.72727272727273" width="17.672727272727272" height="17.672727272727272" as="geometry" />
        </mxCell>
      </root>
    </mxGraphModel>
  </diagram>
</mxfile>
